{
  "asset": {
    "generator": "glTF-Transform v4.1.1",
    "version": "2.0",
    "extras": {
      "author": "Stym (https://sketchfab.com/Stym)",
      "license": "CC-BY-SA-4.0 (http://creativecommons.org/licenses/by-sa/4.0/)",
      "source": "https://sketchfab.com/3d-models/millennium-falcon-6a27ba566af142708743ccb8b4668d4b",
      "title": "Millennium Falcon"
    }
  },
  "accessors": [
    {
      "type": "SCALAR",
      "componentType": 5125,
      "count": 183978,
      "normalized": false,
      "byteOffset": 0,
      "bufferView": 0
    },
    {
      "type": "VEC3",
      "componentType": 5120,
      "count": 87577,
      "normalized": true,
      "byteOffset": 0,
      "bufferView": 1
    },
    {
      "type": "VEC4",
      "componentType": 5120,
      "count": 87577,
      "normalized": true,
      "byteOffset": 0,
      "bufferView": 2
    },
    {
      "type": "VEC2",
      "componentType": 5126,
      "count": 87577,
      "normalized": false,
      "byteOffset": 0,
      "bufferView": 3
    },
    {
      "type": "SCALAR",
      "componentType": 5123,
      "count": 79956,
      "normalized": false,
      "byteOffset": 0,
      "bufferView": 4
    },
    {
      "type": "VEC3",
      "componentType": 5120,
      "count": 35470,
      "normalized": true,
      "byteOffset": 0,
      "bufferView": 5
    },
    {
      "type": "SCALAR",
      "componentType": 5125,
      "count": 253623,
      "normalized": false,
      "byteOffset": 735912,
      "bufferView": 0
    },
    {
      "type": "VEC3",
      "componentType": 5120,
      "count": 104440,
      "normalized": true,
      "byteOffset": 0,
      "bufferView": 6
    },
    {
      "type": "VEC4",
      "componentType": 5120,
      "count": 104440,
      "normalized": true,
      "byteOffset": 0,
      "bufferView": 7
    },
    {
      "type": "SCALAR",
      "componentType": 5123,
      "count": 978,
      "normalized": false,
      "byteOffset": 159912,
      "bufferView": 4
    },
    {
      "type": "VEC3",
      "componentType": 5120,
      "count": 383,
      "normalized": true,
      "byteOffset": 0,
      "bufferView": 8
    },
    {
      "type": "SCALAR",
      "componentType": 5125,
      "count": 183972,
      "normalized": false,
      "byteOffset": 1750404,
      "bufferView": 0
    },
    {
      "type": "VEC3",
      "componentType": 5120,
      "count": 87587,
      "normalized": true,
      "byteOffset": 0,
      "bufferView": 9
    },
    {
      "type": "VEC3",
      "componentType": 5122,
      "count": 87577,
      "max": [
        24266,
        32767,
        7480
      ],
      "min": [
        -24266,
        -32767,
        -7480
      ],
      "normalized": true,
      "byteOffset": 0,
      "bufferView": 10
    },
    {
      "type": "VEC2",
      "componentType": 5123,
      "count": 87577,
      "normalized": true,
      "byteOffset": 0,
      "bufferView": 11
    },
    {
      "type": "VEC3",
      "componentType": 5122,
      "count": 35470,
      "max": [
        22314,
        32767,
        4856
      ],
      "min": [
        -22314,
        -32767,
        -4856
      ],
      "normalized": true,
      "byteOffset": 0,
      "bufferView": 12
    },
    {
      "type": "VEC2",
      "componentType": 5123,
      "count": 35470,
      "normalized": true,
      "byteOffset": 0,
      "bufferView": 13
    },
    {
      "type": "VEC3",
      "componentType": 5122,
      "count": 104440,
      "max": [
        24711,
        32767,
        5936
      ],
      "min": [
        -24711,
        -32767,
        -5936
      ],
      "normalized": true,
      "byteOffset": 0,
      "bufferView": 14
    },
    {
      "type": "VEC2",
      "componentType": 5123,
      "count": 104440,
      "normalized": true,
      "byteOffset": 0,
      "bufferView": 15
    },
    {
      "type": "VEC3",
      "componentType": 5122,
      "count": 383,
      "max": [
        32767,
        27923,
        13145
      ],
      "min": [
        -32767,
        -27923,
        -13145
      ],
      "normalized": true,
      "byteOffset": 0,
      "bufferView": 16
    },
    {
      "type": "VEC3",
      "componentType": 5122,
      "count": 87587,
      "max": [
        24266,
        32767,
        7480
      ],
      "min": [
        -24266,
        -32767,
        -7480
      ],
      "normalized": true,
      "byteOffset": 0,
      "bufferView": 17
    },
    {
      "type": "VEC2",
      "componentType": 5123,
      "count": 87587,
      "normalized": true,
      "byteOffset": 0,
      "bufferView": 18
    }
  ],
  "bufferViews": [
    {
      "buffer": 1,
      "byteOffset": 0,
      "byteLength": 2486292,
      "target": 34963,
      "extensions": {
        "EXT_meshopt_compression": {
          "buffer": 0,
          "byteOffset": 0,
          "byteLength": 212135,
          "mode": "TRIANGLES",
          "byteStride": 4,
          "count": 621573
        }
      }
    },
    {
      "buffer": 1,
      "byteOffset": 2486292,
      "byteLength": 350308,
      "target": 34962,
      "byteStride": 4,
      "extensions": {
        "EXT_meshopt_compression": {
          "buffer": 0,
          "byteOffset": 212136,
          "byteLength": 111247,
          "mode": "ATTRIBUTES",
          "filter": "OCTAHEDRAL",
          "byteStride": 4,
          "count": 87577
        }
      }
    },
    {
      "buffer": 1,
      "byteOffset": 2836600,
      "byteLength": 350308,
      "target": 34962,
      "byteStride": 4,
      "extensions": {
        "EXT_meshopt_compression": {
          "buffer": 0,
          "byteOffset": 323384,
          "byteLength": 121743,
          "mode": "ATTRIBUTES",
          "filter": "OCTAHEDRAL",
          "byteStride": 4,
          "count": 87577
        }
      }
    },
    {
      "buffer": 1,
      "byteOffset": 3186908,
      "byteLength": 700616,
      "target": 34962,
      "byteStride": 8,
      "extensions": {
        "EXT_meshopt_compression": {
          "buffer": 0,
          "byteOffset": 445128,
          "byteLength": 251220,
          "mode": "ATTRIBUTES",
          "byteStride": 8,
          "count": 87577
        }
      }
    },
    {
      "buffer": 1,
      "byteOffset": 3887524,
      "byteLength": 161868,
      "target": 34963,
      "extensions": {
        "EXT_meshopt_compression": {
          "buffer": 0,
          "byteOffset": 696348,
          "byteLength": 28001,
          "mode": "TRIANGLES",
          "byteStride": 2,
          "count": 80934
        }
      }
    },
    {
      "buffer": 1,
      "byteOffset": 4049392,
      "byteLength": 141880,
      "target": 34962,
      "byteStride": 4,
      "extensions": {
        "EXT_meshopt_compression": {
          "buffer": 0,
          "byteOffset": 724352,
          "byteLength": 43120,
          "mode": "ATTRIBUTES",
          "filter": "OCTAHEDRAL",
          "byteStride": 4,
          "count": 35470
        }
      }
    },
    {
      "buffer": 1,
      "byteOffset": 4191272,
      "byteLength": 417760,
      "target": 34962,
      "byteStride": 4,
      "extensions": {
        "EXT_meshopt_compression": {
          "buffer": 0,
          "byteOffset": 767472,
          "byteLength": 159444,
          "mode": "ATTRIBUTES",
          "filter": "OCTAHEDRAL",
          "byteStride": 4,
          "count": 104440
        }
      }
    },
    {
      "buffer": 1,
      "byteOffset": 4609032,
      "byteLength": 417760,
      "target": 34962,
      "byteStride": 4,
      "extensions": {
        "EXT_meshopt_compression": {
          "buffer": 0,
          "byteOffset": 926916,
          "byteLength": 161143,
          "mode": "ATTRIBUTES",
          "filter": "OCTAHEDRAL",
          "byteStride": 4,
          "count": 104440
        }
      }
    },
    {
      "buffer": 1,
      "byteOffset": 5026792,
      "byteLength": 1532,
      "target": 34962,
      "byteStride": 4,
      "extensions": {
        "EXT_meshopt_compression": {
          "buffer": 0,
          "byteOffset": 1088060,
          "byteLength": 435,
          "mode": "ATTRIBUTES",
          "filter": "OCTAHEDRAL",
          "byteStride": 4,
          "count": 383
        }
      }
    },
    {
      "buffer": 1,
      "byteOffset": 5028324,
      "byteLength": 350348,
      "target": 34962,
      "byteStride": 4,
      "extensions": {
        "EXT_meshopt_compression": {
          "buffer": 0,
          "byteOffset": 1088496,
          "byteLength": 111133,
          "mode": "ATTRIBUTES",
          "filter": "OCTAHEDRAL",
          "byteStride": 4,
          "count": 87587
        }
      }
    },
    {
      "buffer": 1,
      "byteOffset": 5378672,
      "byteLength": 700616,
      "target": 34962,
      "byteStride": 8,
      "extensions": {
        "EXT_meshopt_compression": {
          "buffer": 0,
          "byteOffset": 1199632,
          "byteLength": 361012,
          "mode": "ATTRIBUTES",
          "byteStride": 8,
          "count": 87577
        }
      }
    },
    {
      "buffer": 1,
      "byteOffset": 6079288,
      "byteLength": 350308,
      "target": 34962,
      "byteStride": 4,
      "extensions": {
        "EXT_meshopt_compression": {
          "buffer": 0,
          "byteOffset": 1560644,
          "byteLength": 237737,
          "mode": "ATTRIBUTES",
          "byteStride": 4,
          "count": 87577
        }
      }
    },
    {
      "buffer": 1,
      "byteOffset": 6429596,
      "byteLength": 283760,
      "target": 34962,
      "byteStride": 8,
      "extensions": {
        "EXT_meshopt_compression": {
          "buffer": 0,
          "byteOffset": 1798384,
          "byteLength": 137110,
          "mode": "ATTRIBUTES",
          "byteStride": 8,
          "count": 35470
        }
      }
    },
    {
      "buffer": 1,
      "byteOffset": 6713356,
      "byteLength": 141880,
      "target": 34962,
      "byteStride": 4,
      "extensions": {
        "EXT_meshopt_compression": {
          "buffer": 0,
          "byteOffset": 1935496,
          "byteLength": 104129,
          "mode": "ATTRIBUTES",
          "byteStride": 4,
          "count": 35470
        }
      }
    },
    {
      "buffer": 1,
      "byteOffset": 6855236,
      "byteLength": 835520,
      "target": 34962,
      "byteStride": 8,
      "extensions": {
        "EXT_meshopt_compression": {
          "buffer": 0,
          "byteOffset": 2039628,
          "byteLength": 409748,
          "mode": "ATTRIBUTES",
          "byteStride": 8,
          "count": 104440
        }
      }
    },
    {
      "buffer": 1,
      "byteOffset": 7690756,
      "byteLength": 417760,
      "target": 34962,
      "byteStride": 4,
      "extensions": {
        "EXT_meshopt_compression": {
          "buffer": 0,
          "byteOffset": 2449376,
          "byteLength": 298490,
          "mode": "ATTRIBUTES",
          "byteStride": 4,
          "count": 104440
        }
      }
    },
    {
      "buffer": 1,
      "byteOffset": 8108516,
      "byteLength": 3064,
      "target": 34962,
      "byteStride": 8,
      "extensions": {
        "EXT_meshopt_compression": {
          "buffer": 0,
          "byteOffset": 2747868,
          "byteLength": 1853,
          "mode": "ATTRIBUTES",
          "byteStride": 8,
          "count": 383
        }
      }
    },
    {
      "buffer": 1,
      "byteOffset": 8111580,
      "byteLength": 700696,
      "target": 34962,
      "byteStride": 8,
      "extensions": {
        "EXT_meshopt_compression": {
          "buffer": 0,
          "byteOffset": 2749724,
          "byteLength": 360937,
          "mode": "ATTRIBUTES",
          "byteStride": 8,
          "count": 87587
        }
      }
    },
    {
      "buffer": 1,
      "byteOffset": 8812276,
      "byteLength": 350348,
      "target": 34962,
      "byteStride": 4,
      "extensions": {
        "EXT_meshopt_compression": {
          "buffer": 0,
          "byteOffset": 3110664,
          "byteLength": 237816,
          "mode": "ATTRIBUTES",
          "byteStride": 4,
          "count": 87587
        }
      }
    }
  ],
  "samplers": [
    {
      "magFilter": 9729,
      "minFilter": 9987,
      "wrapS": 10497,
      "wrapT": 10497
    }
  ],
  "textures": [
    {
      "source": 0,
      "sampler": 0
    },
    {
      "source": 2,
      "sampler": 0
    },
    {
      "source": 1,
      "sampler": 0
    },
    {
      "source": 3,
      "sampler": 0
    },
    {
      "source": 4,
      "sampler": 0
    },
    {
      "source": 5,
      "sampler": 0
    },
    {
      "source": 7,
      "sampler": 0
    },
    {
      "source": 8,
      "sampler": 0
    },
    {
      "source": 6,
      "sampler": 0
    },
    {
      "source": 9,
      "sampler": 0
    }
  ],
  "images": [
    {
      "mimeType": "image/png",
      "uri": "textures/Tex_0095_1.dds_baseColor.png"
    },
    {
      "mimeType": "image/png",
      "uri": "textures/Tex_0095_1.dds_metallicRoughness.png"
    },
    {
      "mimeType": "image/png",
      "uri": "textures/Tex_0095_1.dds_normal.png"
    },
    {
      "mimeType": "image/png",
      "uri": "textures/Tex_0095_3.dds_baseColor.png"
    },
    {
      "mimeType": "image/png",
      "uri": "textures/Tex_0095_3.dds_metallicRoughness.png"
    },
    {
      "mimeType": "image/png",
      "uri": "textures/Tex_0095_2.dds_baseColor.png"
    },
    {
      "mimeType": "image/png",
      "uri": "textures/Tex_0095_2.dds_metallicRoughness.png"
    },
    {
      "mimeType": "image/png",
      "uri": "textures/Tex_0095_2.dds_emissive.png"
    },
    {
      "mimeType": "image/png",
      "uri": "textures/Tex_0095_2.dds_normal.png"
    },
    {
      "mimeType": "image/png",
      "uri": "textures/Tex_0095_2.dds_0_baseColor.png"
    }
  ],
  "buffers": [
    {
      "uri": "scene.bin",
      "byteLength": 3348480
    },
    {
      "byteLength": 9162624,
      "extensions": {
        "EXT_meshopt_compression": {
          "fallback": true
        }
      }
    }
  ],
  "materials": [
    {
      "name": "Tex_0095_1.dds",
      "doubleSided": true,
      "pbrMetallicRoughness": {
        "baseColorTexture": {
          "index": 0
        },
        "metallicRoughnessTexture": {
          "index": 2
        }
      },
      "normalTexture": {
        "index": 1,
        "texCoord": 1
      }
    },
    {
      "name": "Tex_0095_3.dds",
      "doubleSided": true,
      "pbrMetallicRoughness": {
        "baseColorTexture": {
          "index": 3
        },
        "metallicRoughnessTexture": {
          "index": 4
        }
      }
    },
    {
      "name": "Tex_0095_2.dds",
      "doubleSided": true,
      "pbrMetallicRoughness": {
        "baseColorTexture": {
          "index": 5
        },
        "metallicRoughnessTexture": {
          "index": 8
        }
      },
      "emissiveFactor": [
        1,
        1,
        1
      ],
      "emissiveTexture": {
        "index": 6
      },
      "normalTexture": {
        "index": 7
      }
    },
    {
      "name": "Tex_5040_1.dds",
      "alphaMode": "BLEND",
      "doubleSided": true,
      "pbrMetallicRoughness": {
        "baseColorFactor": [
          0,
          0,
          0,
          0.65
        ],
        "roughnessFactor": 0,
        "metallicFactor": 0
      }
    },
    {
      "name": "Tex_0095_2.dds_0",
      "alphaMode": "BLEND",
      "doubleSided": true,
      "pbrMetallicRoughness": {
        "baseColorTexture": {
          "index": 9
        },
        "metallicRoughnessTexture": {
          "index": 8
        }
      }
    }
  ],
  "meshes": [
    {
      "name": "Mesh_0067_Tex_0095_1.dds_0",
      "primitives": [
        {
          "attributes": {
            "NORMAL": 1,
            "TANGENT": 2,
            "TEXCOORD_0": 3,
            "POSITION": 13,
            "TEXCOORD_1": 14
          },
          "mode": 4,
          "material": 0,
          "indices": 0
        }
      ]
    },
    {
      "name": "Mesh_0069_Tex_0095_3.dds_0",
      "primitives": [
        {
          "attributes": {
            "NORMAL": 5,
            "POSITION": 15,
            "TEXCOORD_0": 16
          },
          "mode": 4,
          "material": 1,
          "indices": 4
        }
      ]
    },
    {
      "name": "Mesh_0068_Tex_0095_2.dds_0",
      "primitives": [
        {
          "attributes": {
            "NORMAL": 7,
            "TANGENT": 8,
            "POSITION": 17,
            "TEXCOORD_0": 18
          },
          "mode": 4,
          "material": 2,
          "indices": 6
        }
      ]
    },
    {
      "name": "Mesh_0546_Tex_5040_1.dds_0",
      "primitives": [
        {
          "attributes": {
            "NORMAL": 10,
            "POSITION": 19
          },
          "mode": 4,
          "material": 3,
          "indices": 9
        }
      ]
    },
    {
      "name": "Mesh_0067_Tex_0095_2.dds_0",
      "primitives": [
        {
          "attributes": {
            "NORMAL": 12,
            "POSITION": 20,
            "TEXCOORD_0": 21
          },
          "mode": 4,
          "material": 4,
          "indices": 11
        }
      ]
    }
  ],
  "nodes": [
    {
      "name": "Mesh_0067_Tex_0095_1.dds_0",
      "translation": [
        -0.017400536125933286,
        0.07395213543870209,
        0.8425522755715065
      ],
      "rotation": [
        -0.7071067811865475,
        0,
        0,
        0.7071067811865476
      ],
      "scale": [
        3.963658965949435,
        3.963658965949435,
        3.963658965949435
      ],
      "mesh": 0
    },
    {
      "name": "Mesh_0069_Tex_0095_3.dds_0",
      "translation": [
        0,
        -0.7503981562050016,
        0.2802400703000954
      ],
      "rotation": [
        -0.7071067811865475,
        0,
        0,
        0.7071067811865476
      ],
      "scale": [
        2.0239570967532927,
        2.0239570967532927,
        2.0239570967532927
      ],
      "mesh": 1
    },
    {
      "name": "Mesh_0068_Tex_0095_2.dds_0",
      "translation": [
        -0.054033243759477045,
        -0.03136668436296497,
        1.0064836422316148
      ],
      "rotation": [
        -0.7071067811865475,
        0,
        0,
        0.7071067811865476
      ],
      "scale": [
        3.8363603069228702,
        3.8363603069228702,
        3.8363603069228702
      ],
      "mesh": 2
    },
    {
      "name": "Mesh_0546_Tex_5040_1.dds_0",
      "translation": [
        -1.3409860538104112,
        -0.030222019571802455,
        1.3750143501064984
      ],
      "rotation": [
        -0.7071067811865475,
        0,
        0,
        0.7071067811865476
      ],
      "scale": [
        1.593293827636444,
        1.593293827636444,
        1.593293827636444
      ],
      "mesh": 3
    },
    {
      "name": "Mesh_0067_Tex_0095_2.dds_0",
      "translation": [
        -0.017400536125933286,
        0.07395213543870209,
        0.8425522755715065
      ],
      "rotation": [
        -0.7071067811865475,
        0,
        0,
        0.7071067811865476
      ],
      "scale": [
        3.963658965949435,
        3.963658965949435,
        3.963658965949435
      ],
      "mesh": 4
    }
  ],
  "scenes": [
    {
      "name": "Sketchfab_Scene",
      "nodes": [
        0,
        1,
        2,
        3,
        4
      ]
    }
  ],
  "scene": 0,
  "extensionsUsed": [
    "EXT_meshopt_compression",
    "KHR_mesh_quantization"
  ],
  "extensionsRequired": [
    "EXT_meshopt_compression",
    "KHR_mesh_quantization"
  ]
}