{
  "asset": {
    "generator": "glTF-Transform v4.1.1",
    "version": "2.0",
    "extras": {
      "author": "dannyjackson (https://sketchfab.com/dannyjackson)",
      "license": "CC-BY-4.0 (http://creativecommons.org/licenses/by/4.0/)",
      "source": "https://sketchfab.com/3d-models/delorian-88mph-7d2449443bab4ee7ad7e13b9de862bf6",
      "title": "Delorian_88mph"
    }
  },
  "accessors": [
    {
      "type": "VEC3",
      "componentType": 5120,
      "count": 412749,
      "normalized": true,
      "byteOffset": 0,
      "bufferView": 0
    },
    {
      "type": "VEC2",
      "componentType": 5126,
      "count": 412749,
      "normalized": false,
      "byteOffset": 0,
      "bufferView": 1
    },
    {
      "type": "VEC3",
      "componentType": 5120,
      "count": 434703,
      "normalized": true,
      "byteOffset": 0,
      "bufferView": 2
    },
    {
      "type": "VEC2",
      "componentType": 5126,
      "count": 434703,
      "normalized": false,
      "byteOffset": 0,
      "bufferView": 3
    },
    {
      "type": "VEC3",
      "componentType": 5120,
      "count": 425301,
      "normalized": true,
      "byteOffset": 0,
      "bufferView": 4
    },
    {
      "type": "VEC2",
      "componentType": 5126,
      "count": 425301,
      "normalized": false,
      "byteOffset": 0,
      "bufferView": 5
    },
    {
      "type": "VEC3",
      "componentType": 5120,
      "count": 23388,
      "normalized": true,
      "byteOffset": 0,
      "bufferView": 6
    },
    {
      "type": "VEC2",
      "componentType": 5126,
      "count": 23388,
      "normalized": false,
      "byteOffset": 0,
      "bufferView": 7
    },
    {
      "type": "SCALAR",
      "componentType": 5123,
      "count": 16350,
      "normalized": false,
      "byteOffset": 0,
      "bufferView": 8
    },
    {
      "type": "VEC3",
      "componentType": 5120,
      "count": 3114,
      "normalized": true,
      "byteOffset": 0,
      "bufferView": 9
    },
    {
      "type": "VEC3",
      "componentType": 5122,
      "count": 3114,
      "max": [
        32767,
        18498,
        28375
      ],
      "min": [
        -32767,
        -18498,
        -28375
      ],
      "normalized": true,
      "byteOffset": 0,
      "bufferView": 10
    },
    {
      "type": "VEC2",
      "componentType": 5123,
      "count": 3114,
      "normalized": true,
      "byteOffset": 0,
      "bufferView": 11
    },
    {
      "type": "VEC3",
      "componentType": 5122,
      "count": 412749,
      "max": [
        32767,
        18322,
        23302
      ],
      "min": [
        -32767,
        -18322,
        -23302
      ],
      "normalized": true,
      "byteOffset": 0,
      "bufferView": 12
    },
    {
      "type": "VEC3",
      "componentType": 5122,
      "count": 434703,
      "max": [
        32767,
        17294,
        23262
      ],
      "min": [
        -32767,
        -17294,
        -23262
      ],
      "normalized": true,
      "byteOffset": 0,
      "bufferView": 13
    },
    {
      "type": "VEC3",
      "componentType": 5122,
      "count": 425301,
      "max": [
        32767,
        17302,
        23246
      ],
      "min": [
        -32767,
        -17302,
        -23246
      ],
      "normalized": true,
      "byteOffset": 0,
      "bufferView": 14
    },
    {
      "type": "VEC3",
      "componentType": 5122,
      "count": 23388,
      "max": [
        32767,
        17966,
        24210
      ],
      "min": [
        -32767,
        -17966,
        -24210
      ],
      "normalized": true,
      "byteOffset": 0,
      "bufferView": 15
    }
  ],
  "bufferViews": [
    {
      "buffer": 1,
      "byteOffset": 0,
      "byteLength": 1650996,
      "target": 34962,
      "byteStride": 4,
      "extensions": {
        "EXT_meshopt_compression": {
          "buffer": 0,
          "byteOffset": 0,
          "byteLength": 834602,
          "mode": "ATTRIBUTES",
          "filter": "OCTAHEDRAL",
          "byteStride": 4,
          "count": 412749
        }
      }
    },
    {
      "buffer": 1,
      "byteOffset": 1650996,
      "byteLength": 3301992,
      "target": 34962,
      "byteStride": 8,
      "extensions": {
        "EXT_meshopt_compression": {
          "buffer": 0,
          "byteOffset": 834604,
          "byteLength": 1824447,
          "mode": "ATTRIBUTES",
          "byteStride": 8,
          "count": 412749
        }
      }
    },
    {
      "buffer": 1,
      "byteOffset": 4952988,
      "byteLength": 1738812,
      "target": 34962,
      "byteStride": 4,
      "extensions": {
        "EXT_meshopt_compression": {
          "buffer": 0,
          "byteOffset": 2659052,
          "byteLength": 878603,
          "mode": "ATTRIBUTES",
          "filter": "OCTAHEDRAL",
          "byteStride": 4,
          "count": 434703
        }
      }
    },
    {
      "buffer": 1,
      "byteOffset": 6691800,
      "byteLength": 3477624,
      "target": 34962,
      "byteStride": 8,
      "extensions": {
        "EXT_meshopt_compression": {
          "buffer": 0,
          "byteOffset": 3537656,
          "byteLength": 1915428,
          "mode": "ATTRIBUTES",
          "byteStride": 8,
          "count": 434703
        }
      }
    },
    {
      "buffer": 1,
      "byteOffset": 10169424,
      "byteLength": 1701204,
      "target": 34962,
      "byteStride": 4,
      "extensions": {
        "EXT_meshopt_compression": {
          "buffer": 0,
          "byteOffset": 5453084,
          "byteLength": 858799,
          "mode": "ATTRIBUTES",
          "filter": "OCTAHEDRAL",
          "byteStride": 4,
          "count": 425301
        }
      }
    },
    {
      "buffer": 1,
      "byteOffset": 11870628,
      "byteLength": 3402408,
      "target": 34962,
      "byteStride": 8,
      "extensions": {
        "EXT_meshopt_compression": {
          "buffer": 0,
          "byteOffset": 6311884,
          "byteLength": 1869468,
          "mode": "ATTRIBUTES",
          "byteStride": 8,
          "count": 425301
        }
      }
    },
    {
      "buffer": 1,
      "byteOffset": 15273036,
      "byteLength": 93552,
      "target": 34962,
      "byteStride": 4,
      "extensions": {
        "EXT_meshopt_compression": {
          "buffer": 0,
          "byteOffset": 8181352,
          "byteLength": 47444,
          "mode": "ATTRIBUTES",
          "filter": "OCTAHEDRAL",
          "byteStride": 4,
          "count": 23388
        }
      }
    },
    {
      "buffer": 1,
      "byteOffset": 15366588,
      "byteLength": 187104,
      "target": 34962,
      "byteStride": 8,
      "extensions": {
        "EXT_meshopt_compression": {
          "buffer": 0,
          "byteOffset": 8228796,
          "byteLength": 98167,
          "mode": "ATTRIBUTES",
          "byteStride": 8,
          "count": 23388
        }
      }
    },
    {
      "buffer": 1,
      "byteOffset": 15553692,
      "byteLength": 32700,
      "target": 34963,
      "extensions": {
        "EXT_meshopt_compression": {
          "buffer": 0,
          "byteOffset": 8326964,
          "byteLength": 6398,
          "mode": "TRIANGLES",
          "byteStride": 2,
          "count": 16350
        }
      }
    },
    {
      "buffer": 1,
      "byteOffset": 15586392,
      "byteLength": 12456,
      "target": 34962,
      "byteStride": 4,
      "extensions": {
        "EXT_meshopt_compression": {
          "buffer": 0,
          "byteOffset": 8333364,
          "byteLength": 5051,
          "mode": "ATTRIBUTES",
          "filter": "OCTAHEDRAL",
          "byteStride": 4,
          "count": 3114
        }
      }
    },
    {
      "buffer": 1,
      "byteOffset": 15598848,
      "byteLength": 24912,
      "target": 34962,
      "byteStride": 8,
      "extensions": {
        "EXT_meshopt_compression": {
          "buffer": 0,
          "byteOffset": 8338416,
          "byteLength": 13863,
          "mode": "ATTRIBUTES",
          "byteStride": 8,
          "count": 3114
        }
      }
    },
    {
      "buffer": 1,
      "byteOffset": 15623760,
      "byteLength": 12456,
      "target": 34962,
      "byteStride": 4,
      "extensions": {
        "EXT_meshopt_compression": {
          "buffer": 0,
          "byteOffset": 8352280,
          "byteLength": 6634,
          "mode": "ATTRIBUTES",
          "byteStride": 4,
          "count": 3114
        }
      }
    },
    {
      "buffer": 1,
      "byteOffset": 15636216,
      "byteLength": 3301992,
      "target": 34962,
      "byteStride": 8,
      "extensions": {
        "EXT_meshopt_compression": {
          "buffer": 0,
          "byteOffset": 8358916,
          "byteLength": 1978449,
          "mode": "ATTRIBUTES",
          "byteStride": 8,
          "count": 412749
        }
      }
    },
    {
      "buffer": 1,
      "byteOffset": 18938208,
      "byteLength": 3477624,
      "target": 34962,
      "byteStride": 8,
      "extensions": {
        "EXT_meshopt_compression": {
          "buffer": 0,
          "byteOffset": 10337368,
          "byteLength": 2091997,
          "mode": "ATTRIBUTES",
          "byteStride": 8,
          "count": 434703
        }
      }
    },
    {
      "buffer": 1,
      "byteOffset": 22415832,
      "byteLength": 3402408,
      "target": 34962,
      "byteStride": 8,
      "extensions": {
        "EXT_meshopt_compression": {
          "buffer": 0,
          "byteOffset": 12429368,
          "byteLength": 2038878,
          "mode": "ATTRIBUTES",
          "byteStride": 8,
          "count": 425301
        }
      }
    },
    {
      "buffer": 1,
      "byteOffset": 25818240,
      "byteLength": 187104,
      "target": 34962,
      "byteStride": 8,
      "extensions": {
        "EXT_meshopt_compression": {
          "buffer": 0,
          "byteOffset": 14468248,
          "byteLength": 112515,
          "mode": "ATTRIBUTES",
          "byteStride": 8,
          "count": 23388
        }
      }
    }
  ],
  "samplers": [
    {
      "magFilter": 9729,
      "minFilter": 9987,
      "wrapS": 10497,
      "wrapT": 10497
    }
  ],
  "textures": [
    {
      "source": 0,
      "sampler": 0
    },
    {
      "source": 1,
      "sampler": 0
    },
    {
      "source": 2,
      "sampler": 0
    },
    {
      "source": 3,
      "sampler": 0
    },
    {
      "source": 4,
      "sampler": 0
    }
  ],
  "images": [
    {
      "mimeType": "image/png",
      "uri": "textures/GeneratedMat4_baseColor.png"
    },
    {
      "mimeType": "image/png",
      "uri": "textures/color_ffffff_texture_deloren_0_baseColor.png"
    },
    {
      "mimeType": "image/png",
      "uri": "textures/color_ffffff_texture_deloren_1_baseColor.png"
    },
    {
      "mimeType": "image/png",
      "uri": "textures/color_ffffff_texture_deloren_2_baseColor.png"
    },
    {
      "mimeType": "image/png",
      "uri": "textures/color_ffffff_texture_deloren_3_baseColor.png"
    }
  ],
  "buffers": [
    {
      "uri": "scene.bin",
      "byteLength": 14580764
    },
    {
      "byteLength": 26005344,
      "extensions": {
        "EXT_meshopt_compression": {
          "fallback": true
        }
      }
    }
  ],
  "materials": [
    {
      "name": "GeneratedMat4",
      "doubleSided": true,
      "pbrMetallicRoughness": {
        "metallicFactor": 0,
        "baseColorTexture": {
          "index": 0
        }
      }
    },
    {
      "name": "color_ffffff_texture_deloren_0",
      "doubleSided": true,
      "pbrMetallicRoughness": {
        "metallicFactor": 0,
        "baseColorTexture": {
          "index": 1
        }
      }
    },
    {
      "name": "color_ffffff_texture_deloren_1",
      "doubleSided": true,
      "pbrMetallicRoughness": {
        "metallicFactor": 0,
        "baseColorTexture": {
          "index": 2
        }
      }
    },
    {
      "name": "color_ffffff_texture_deloren_2",
      "doubleSided": true,
      "pbrMetallicRoughness": {
        "metallicFactor": 0,
        "baseColorTexture": {
          "index": 3
        }
      }
    },
    {
      "name": "color_ffffff_texture_deloren_3",
      "doubleSided": true,
      "pbrMetallicRoughness": {
        "metallicFactor": 0,
        "baseColorTexture": {
          "index": 4
        }
      }
    }
  ],
  "meshes": [
    {
      "name": "Object_0",
      "primitives": [
        {
          "attributes": {
            "NORMAL": 9,
            "POSITION": 10,
            "TEXCOORD_0": 11
          },
          "mode": 4,
          "material": 0,
          "indices": 8
        }
      ]
    },
    {
      "name": "Object_1",
      "primitives": [
        {
          "attributes": {
            "NORMAL": 0,
            "TEXCOORD_0": 1,
            "POSITION": 12
          },
          "mode": 4,
          "material": 1
        }
      ]
    },
    {
      "name": "Object_8",
      "primitives": [
        {
          "attributes": {
            "NORMAL": 2,
            "TEXCOORD_0": 3,
            "POSITION": 13
          },
          "mode": 4,
          "material": 2
        }
      ]
    },
    {
      "name": "Object_15",
      "primitives": [
        {
          "attributes": {
            "NORMAL": 4,
            "TEXCOORD_0": 5,
            "POSITION": 14
          },
          "mode": 4,
          "material": 3
        }
      ]
    },
    {
      "name": "Object_22",
      "primitives": [
        {
          "attributes": {
            "NORMAL": 6,
            "TEXCOORD_0": 7,
            "POSITION": 15
          },
          "mode": 4,
          "material": 4
        }
      ]
    }
  ],
  "nodes": [
    {
      "name": "Object_2",
      "translation": [
        -17.449530722653428,
        13.281720076378797,
        5.6392377505856395
      ],
      "rotation": [
        0.839529893746374,
        -0.11525627588210383,
        -0.45436851812264006,
        -0.27469036771431615
      ],
      "scale": [
        41.03930078017519,
        41.03930150711374,
        41.03930205543656
      ],
      "mesh": 0
    },
    {
      "name": "Object_3",
      "translation": [
        -18.998522591991172,
        -2.066480959401312,
        4.331221661042516
      ],
      "rotation": [
        0.8395298937463741,
        -0.11525627588210383,
        -0.45436851812264006,
        -0.27469036771431615
      ],
      "scale": [
        92.62765090221541,
        92.62765254295023,
        92.62765378054087
      ],
      "mesh": 1
    },
    {
      "name": "Object_10",
      "translation": [
        -17.77326238427745,
        0.3030101087961996,
        5.296412376572722
      ],
      "rotation": [
        0.8395298937463741,
        -0.11525627588210378,
        -0.45436851812264006,
        -0.27469036771431615
      ],
      "scale": [
        92.63189666025772,
        92.63189830106778,
        92.63189953871512
      ],
      "mesh": 2
    },
    {
      "name": "Object_17",
      "translation": [
        -18.1144126284967,
        -0.7762789923657141,
        5.169244043539493
      ],
      "rotation": [
        0.8395298937463741,
        -0.1152562758821038,
        -0.45436851812263995,
        -0.27469036771431615
      ],
      "scale": [
        92.50320021904136,
        92.50320185757178,
        92.50320309349964
      ],
      "mesh": 3
    },
    {
      "name": "Object_24",
      "translation": [
        -20.039665132784954,
        -0.39027935166002825,
        11.136621528409762
      ],
      "rotation": [
        0.8395298937463741,
        -0.1152562758821038,
        -0.45436851812264006,
        -0.27469036771431615
      ],
      "scale": [
        85.00024957600989,
        85.00025108163882,
        85.00025221732035
      ],
      "mesh": 4
    }
  ],
  "scenes": [
    {
      "name": "Sketchfab_Scene",
      "nodes": [
        0,
        1,
        2,
        3,
        4
      ]
    }
  ],
  "scene": 0,
  "extensionsUsed": [
    "EXT_meshopt_compression",
    "KHR_mesh_quantization"
  ],
  "extensionsRequired": [
    "EXT_meshopt_compression",
    "KHR_mesh_quantization"
  ]
}